HIERARCHY
ROOT hip
{
  OFFSET 0 0 0
  CHANNELS 6 Xposition Yposition Zposition Zrotation Yrotation Xrotation
  JOINT abdomen
  {
    OFFSET 0 20.6881 -0.73152
    CHANNELS 3 Zrotation Xrotation Yrotation
    JOINT chest
    {
      OFFSET 0 11.7043 -0.48768
      CHANNELS 3 Zrotation Xrotation Yrotation
      JOINT neck
      {
        OFFSET 0 22.1894 -2.19456
        CHANNELS 3 Zrotation Xrotation Yrotation
        JOINT head
        {
          OFFSET -0.24384 7.07133 1.2192
          CHANNELS 3 Zrotation Xrotation Yrotation
          JOINT leftEye
          {
            OFFSET 4.14528 8.04674 8.04672
            CHANNELS 3 Zrotation Xrotation Yrotation
            End Site
            {
              OFFSET 1 0 0
            }
          }
          JOINT rightEye
          {
            OFFSET -3.6576 8.04674 8.04672
            CHANNELS 3 Zrotation Xrotation Yrotation
            End Site
            {
              OFFSET 1 0 0
            }
          }
        }
      }
      JOINT rCollar
      {
        OFFSET -2.68224 19.2634 -4.8768
        CHANNELS 3 Zrotation Xrotation Yrotation
        JOINT rShldr
        {
          OFFSET -8.77824 -1.95073 1.46304
          CHANNELS 3 Zrotation Xrotation Yrotation
          JOINT rForeArm
          {
            OFFSET -28.1742 -1.7115 0.48768
            CHANNELS 3 Zrotation Xrotation Yrotation
            JOINT rHand
            {
              OFFSET -22.5879 0.773209 7.07136
              CHANNELS 3 Zrotation Xrotation Yrotation
              JOINT rThumb1
              {
                OFFSET -1.2192 -0.487915 3.41376
                CHANNELS 3 Zrotation Xrotation Yrotation
                JOINT rThumb2
                {
                  OFFSET -3.37035 -0.52449 3.41376
                  CHANNELS 3 Zrotation Xrotation Yrotation
                  End Site
                  {
                    OFFSET -1.78271 -1.18214 1.43049
                  }
                }
              }
              JOINT rIndex1
              {
                OFFSET -7.75947 0.938293 5.60832
                CHANNELS 3 Zrotation Xrotation Yrotation
                JOINT rIndex2
                {
                  OFFSET -2.54057 -0.884171 1.56538
                  CHANNELS 3 Zrotation Xrotation Yrotation
                  End Site
                  {
                    OFFSET -1.62519 -0.234802 1.16502
                  }
                }
              }
              JOINT rMid1
              {
                OFFSET -8.24714 1.18213 3.41376
                CHANNELS 3 Zrotation Xrotation Yrotation
                JOINT rMid2
                {
                  OFFSET -3.10165 -0.590103 1.0647
                  CHANNELS 3 Zrotation Xrotation Yrotation
                  End Site
                  {
                    OFFSET -2.48547 -0.328903 0.83742
                  }
                }
              }
              JOINT rRing1
              {
                OFFSET -8.82822 0.546677 1.51678
                CHANNELS 3 Zrotation Xrotation Yrotation
                JOINT rRing2
                {
                  OFFSET -2.60934 -0.819778 -0.0198488
                  CHANNELS 3 Zrotation Xrotation Yrotation
                  End Site
                  {
                    OFFSET -2.33842 -0.294052 0.168128
                  }
                }
              }
              JOINT rPinky1
              {
                OFFSET -8.27202 -0.0477905 -0.4584
                CHANNELS 3 Zrotation Xrotation Yrotation
                JOINT rPinky2
                {
                  OFFSET -1.82734 -0.647385 -0.700984
                  CHANNELS 3 Zrotation Xrotation Yrotation
                  End Site
                  {
                    OFFSET -1.69225 -0.51767 -0.607171
                  }
                }
              }
            }
          }
        }
      }
      JOINT lCollar
      {
        OFFSET 2.68224 19.2634 -4.8768
        CHANNELS 3 Zrotation Xrotation Yrotation
        JOINT lShldr
        {
          OFFSET 8.77824 -1.95073 1.46304
          CHANNELS 3 Zrotation Xrotation Yrotation
          JOINT lForeArm
          {
            OFFSET 28.1742 -1.7115 0.48768
            CHANNELS 3 Zrotation Xrotation Yrotation
            JOINT lHand
            {
              OFFSET 22.5879 0.773209 7.07136
              CHANNELS 3 Zrotation Xrotation Yrotation
              JOINT lThumb1
              {
                OFFSET 1.2192 -0.487915 3.41376
                CHANNELS 3 Zrotation Xrotation Yrotation
                JOINT lThumb2
                {
                  OFFSET 3.37035 -0.52449 3.41376
                  CHANNELS 3 Zrotation Xrotation Yrotation
                  End Site
                  {
                    OFFSET 1.78271 -1.18214 1.43049
                  }
                }
              }
              JOINT lIndex1
              {
                OFFSET 7.75947 0.938293 5.60832
                CHANNELS 3 Zrotation Xrotation Yrotation
                JOINT lIndex2
                {
                  OFFSET 2.54057 -0.884171 1.56538
                  CHANNELS 3 Zrotation Xrotation Yrotation
                  End Site
                  {
                    OFFSET 1.62519 -0.234802 1.16502
                  }
                }
              }
              JOINT lMid1
              {
                OFFSET 8.24714 1.18213 3.41376
                CHANNELS 3 Zrotation Xrotation Yrotation
                JOINT lMid2
                {
                  OFFSET 3.10165 -0.590103 1.0647
                  CHANNELS 3 Zrotation Xrotation Yrotation
                  End Site
                  {
                    OFFSET 2.48547 -0.328903 0.83742
                  }
                }
              }
              JOINT lRing1
              {
                OFFSET 8.82822 0.546677 1.51678
                CHANNELS 3 Zrotation Xrotation Yrotation
                JOINT lRing2
                {
                  OFFSET 2.60934 -0.819778 -0.0198488
                  CHANNELS 3 Zrotation Xrotation Yrotation
                  End Site
                  {
                    OFFSET 2.33842 -0.294052 0.168128
                  }
                }
              }
              JOINT lPinky1
              {
                OFFSET 8.27202 -0.0477905 -0.4584
                CHANNELS 3 Zrotation Xrotation Yrotation
                JOINT lPinky2
                {
                  OFFSET 1.82734 -0.647385 -0.700984
                  CHANNELS 3 Zrotation Xrotation Yrotation
                  End Site
                  {
                    OFFSET 1.69225 -0.51767 -0.607171
                  }
                }
              }
            }
          }
        }
      }
    }
  }
  JOINT rButtock
  {
    OFFSET -8.77824 4.35084 1.2192
    CHANNELS 3 Zrotation Xrotation Yrotation
    JOINT rThigh
    {
      OFFSET 0 -1.70687 -2.19456
      CHANNELS 3 Zrotation Xrotation Yrotation
      JOINT rShin
      {
        OFFSET 0 -36.8199 0.73152
        CHANNELS 3 Zrotation Xrotation Yrotation
        JOINT rFoot
        {
          OFFSET 0.73152 -45.1104 -5.12064
          CHANNELS 3 Zrotation Xrotation Yrotation
          End Site
          {
            OFFSET -1.1221 -3.69964 12.103
          }
        }
      }
    }
  }
  JOINT lButtock
  {
    OFFSET 8.77824 4.35084 1.2192
    CHANNELS 3 Zrotation Xrotation Yrotation
    JOINT lThigh
    {
      OFFSET 0 -1.70687 -2.19456
      CHANNELS 3 Zrotation Xrotation Yrotation
      JOINT lShin
      {
        OFFSET 0 -36.8199 0.73152
        CHANNELS 3 Zrotation Xrotation Yrotation
        JOINT lFoot
        {
          OFFSET -0.73152 -45.1104 -5.12064
          CHANNELS 3 Zrotation Xrotation Yrotation
          End Site
          {
            OFFSET 1.1221 -3.69964 12.103
          }
        }
      }
    }
  }
}
MOTION
Frames:	4
Frame Time:	0.03333
-0.01720065748591352 62.012783285974 0.10830993820688876 -3.259127616882324 -1.964249849319458 8.773223876953125 -2.3327574729919434 14.29423999786377 3.7940175533294678 2.6648120880126953 -9.640628814697266 1.2033061981201172 -4.9184465408325195 14.4994478225708 -3.6649210453033447 8.908845901489258 -22.162778854370117 -5.304712772369385 0.03419927880167961 0.022001158446073532 -0.026538873091340065 0.014773745089769363 -0.004360710270702839 -0.04334293678402901 0.018473949283361435 0.03800146281719208 -0.058200396597385406 46.58454132080078 40.045101165771484 17.78217124938965 -25.646297454833984 -26.343473434448242 68.59123992919922 -1.536388635635376 -10.06162166595459 -1.529987096786499 0.012506983242928982 -0.030246341601014137 0.03191601485013962 -0.002604948589578271 0.024993613362312317 -0.017771288752555847 -0.0258820541203022 0.04688132926821709 -0.02912265993654728 7.701797008514404 5.485785484313965 0.3791157901287079 0.05913623794913292 0.015355155803263187 0.0004770061350427568 2.9496402740478516 0.9182510375976562 0.07587666809558868 -0.10172247886657715 -0.012241206131875515 0.023158496245741844 10.303282737731934 0.7405893206596375 0.02189665473997593 0.03135877475142479 -0.08017414063215256 0.015607289038598537 2.2511024475097656 -0.691165566444397 -0.24147196114063263 -0.011610712856054306 -0.0007337626884691417 -0.008805125951766968 -54.8715705871582 40.361000061035156 -25.520177841186523 24.812877655029297 -23.48659324645996 -65.32584381103516 1.8304224014282227 -14.440674781799316 1.9705173969268799 -0.023967094719409943 -0.0320250540971756 -0.007773103658109903 -0.03305894136428833 0.017967965453863144 -0.0037762096617370844 -0.018586277961730957 -0.07339553534984589 -0.0181040707975626 -7.6707892417907715 5.508349418640137 -0.38718295097351074 0.01538932416588068 -0.0024216962046921253 -0.016307100653648376 -2.876845359802246 0.9818280339241028 -0.1194530501961708 -0.05526285991072655 -0.05576620250940323 -0.02868843637406826 -10.258219718933105 0.7140518426895142 -0.019160006195306778 -0.06500169634819031 -0.007007535547018051 0.017610963433980942 -2.176950454711914 -0.7367568016052246 0.2551872134208679 0.035080328583717346 0.027796009555459023 -0.01580536924302578 -24.778732299804688 -41.791717529296875 -18.741487503051758 -1.3238266706466675 65.08960723876953 2.4262287616729736 -4.58323335647583 -11.702348709106445 -9.860467910766602 0.0316176675260067 -0.048657406121492386 -0.04793886840343475 30.132644653320312 -42.78392028808594 20.988645553588867 1.3329359292984009 65.98873138427734 -2.4495112895965576 4.906868934631348 -11.545458793640137 13.01213550567627
-0.053189244387828044 62.6253692922541 0.19117341969151322 -3.270382881164551 -1.861532211303711 9.05587387084961 -2.265746593475342 14.082249641418457 3.651583194732666 2.6884663105010986 -9.52737808227539 1.116991400718689 -4.923203945159912 14.504631996154785 -3.632596015930176 8.861109733581543 -22.098304748535156 -5.237007141113281 0.06830444931983948 0.02528713271021843 -0.056532591581344604 0.018732799217104912 0.0006749272579327226 -0.04007107391953468 0.08574613183736801 0.056301988661289215 -0.07588285952806473 46.55101776123047 40.147987365722656 17.943906784057617 -25.63484001159668 -26.345970153808594 68.54925537109375 -1.5440707206726074 -10.126530647277832 -1.5671316385269165 0.00701639149338007 -0.05183512344956398 0.04137338697910309 -0.016084574162960052 0.017793985083699226 -0.029718244448304176 -0.034239932894706726 0.0860738679766655 -0.028821159154176712 7.6819257736206055 5.522800922393799 0.3340621292591095 0.09348582476377487 0.0731232613325119 0.00994888972491026 2.953944206237793 0.8762116432189941 0.04412751644849777 -0.15691794455051422 -0.02941678836941719 0.007105955854058266 10.322530746459961 0.7539448142051697 -0.007261026185005903 0.05763288959860802 -0.08452935516834259 0.06355700641870499 2.270393133163452 -0.6788331270217896 -0.25917959213256836 -0.04401133954524994 0.00827440619468689 -0.009645606391131878 -54.92789840698242 40.493385314941406 -25.413599014282227 24.774320602416992 -23.554080963134766 -65.5312271118164 1.7436811923980713 -14.315570831298828 1.913448452949524 -0.0536995530128479 -0.04284863919019699 -0.042534224689006805 -0.08518152683973312 0.035489197820425034 -0.01698758266866207 -0.025736935436725616 -0.1126931831240654 -0.014706497080624104 -7.613872528076172 5.520426273345947 -0.36836373805999756 0.017869947478175163 -0.020380167290568352 -0.007055987138301134 -2.873708724975586 0.9574083089828491 -0.1369350701570511 -0.08026286214590073 -0.09126220643520355 -0.04069477692246437 -10.244451522827148 0.7169057130813599 -0.03298034891486168 -0.10775280743837357 0.0031265546567738056 0.0027408706955611706 -2.1340761184692383 -0.7375195622444153 0.2997990548610687 0.053296320140361786 0.04504728317260742 -0.01801469177007675 -24.87021255493164 -41.874446868896484 -18.941865921020508 -1.337119221687317 65.11750030517578 2.39548397064209 -4.493716239929199 -11.480016708374023 -9.79340934753418 -0.006515049375593662 -0.10312053561210632 -0.05000991001725197 30.10740089416504 -42.7396240234375 20.93048858642578 1.2425493001937866 65.73483276367188 -2.403923511505127 4.897917747497559 -11.3114013671875 12.996819496154785
-0.18739888640143493 55.987815362497805 0.20739090346291514 -13.208264350891113 -57.10149383544922 1.794106125831604 -2.291006088256836 10.988720893859863 14.708574295043945 -1.8183329105377197 -11.698792457580566 3.7116057872772217 -1.2485066652297974 12.915436744689941 9.920348167419434 5.418165683746338 -22.459959030151367 19.429819107055664 0.027922146022319794 0.17535607516765594 0.009694098494946957 0.09831534326076508 0.10877227783203125 0.017891040071845055 0.09299878776073456 0.1526520699262619 0.07231795787811279 65.01962280273438 77.27455139160156 3.8691210746765137 -27.194599151611328 -46.84986877441406 95.1240234375 -24.06656265258789 -74.44163513183594 -31.5487003326416 -0.029649266973137856 -0.26103824377059937 -0.00232604774646461 -0.1941959261894226 -0.16131295263767242 0.05969400331377983 0.110370934009552 0.12094429135322571 -0.037787169218063354 7.387786388397217 5.5064802169799805 0.27906203269958496 0.19228972494602203 -0.030148642137646675 0.15024255216121674 3.0484578609466553 0.9463934302330017 0.09193027764558792 -0.05473681166768074 0.06090591102838516 0.11204789578914642 10.3043851852417 0.7088742852210999 0.051561139523983 0.18691985309123993 -0.17063073813915253 0.028075138106942177 2.1164095401763916 -0.653168797492981 -0.3627271354198456 0.0576847679913044 0.3107580244541168 0.2136169821023941 -61.292388916015625 6.772219181060791 -33.25959777832031 27.282880783081055 -31.342050552368164 -73.36177825927734 0.6563913822174072 19.136844635009766 -2.7440781593322754 -0.22592341899871826 0.06503725051879883 -0.06775076687335968 -0.1198296919465065 0.06671213358640671 0.032291438430547714 -0.03953447937965393 -0.09124293178319931 -0.10153049230575562 -7.644145488739014 5.689905166625977 -0.4229462444782257 0.036737196147441864 0.019378477707505226 0.07595957815647125 -2.949388265609741 0.7298409938812256 -0.04762565717101097 -0.0724932849407196 -0.12671957910060883 -0.19863441586494446 -10.291842460632324 0.6941846609115601 0.20437854528427124 0.1186428889632225 -0.19134247303009033 -0.13221375644207 -2.1025800704956055 -0.8230639696121216 0.31795164942741394 0.025535546243190765 0.08955878764390945 -0.013056537136435509 -23.433456420898438 -34.160404205322266 -29.430828094482422 -10.191520690917969 84.64305114746094 12.485940933227539 -11.018258094787598 -23.987789154052734 -22.93459701538086 0.2530275583267212 -0.07289420813322067 0.01836792565882206 58.06432342529297 -44.4867057800293 52.939727783203125 0.6584264039993286 64.14286804199219 -0.8152376413345337 -0.3182353675365448 2.8511202335357666 3.2065203189849854
-0.2934853312292201 55.98813296629421 0.20663792846777412 -12.567049026489258 -57.10844802856445 3.3276526927948 -1.477290153503418 11.930937767028809 14.85850715637207 -1.737318992614746 -12.06554889678955 3.884366512298584 -1.0985044240951538 13.86503791809082 9.216462135314941 8.081066131591797 -20.928403854370117 19.52923011779785 0.12175912410020828 0.31159791350364685 0.028289077803492546 -0.11427091062068939 -0.15894989669322968 -0.19280868768692017 -0.06596294045448303 0.04094642773270607 -0.08136073499917984 52.60337448120117 80.50337982177734 15.389025688171387 -26.112829208374023 -45.4850959777832 93.94965362548828 -35.10063552856445 -78.09620666503906 -42.66196060180664 0.11659690737724304 -0.07460710406303406 0.08046271651983261 -0.04439563676714897 -0.028265250846743584 0.007730607874691486 -0.05764608457684517 0.02690303698182106 -0.10327119380235672 7.354900360107422 5.48731803894043 0.4581344425678253 -0.03378891572356224 -0.27965494990348816 0.13702265918254852 3.0359373092651367 0.727813720703125 0.16493558883666992 -0.05500047281384468 0.02878386713564396 0.14121907949447632 10.324504852294922 0.9095378518104553 0.20548421144485474 0.2736165225505829 -0.06537751853466034 0.0245355237275362 2.3396670818328857 -0.5699816346168518 -0.3755388855934143 0.11726926267147064 -0.07825648039579391 -0.14962980151176453 -63.2523307800293 6.993873596191406 -34.94588851928711 28.791778564453125 -32.69317626953125 -71.20110321044922 0.39732104539871216 19.444427490234375 -3.0730063915252686 -0.1809311956167221 -0.02954734116792679 0.5005872249603271 0.26557502150535583 0.1609308123588562 0.01028378400951624 -0.15617318451404572 -0.0718393549323082 -0.2608661353588104 -7.643246173858643 5.483041763305664 -0.15234722197055817 0.3015531003475189 -0.133412167429924 -0.21588531136512756 -2.7713024616241455 0.9048478603363037 -0.1376688927412033 -0.05115869268774986 -0.2741258144378662 -0.1143268346786499 -9.975544929504395 0.8896366953849792 -0.2450375109910965 -0.058468472212553024 -0.1724764108657837 0.0377059169113636 -2.1058075428009033 -0.831516683101654 0.261274129152298 0.125797301530838 -0.08741801232099533 -0.07926629483699799 -26.173372268676758 -31.716859817504883 -33.18097686767578 -3.8559391498565674 82.38500213623047 6.118345260620117 -11.633578300476074 -23.778324127197266 -22.986635208129883 0.20545321702957153 -0.06101050227880478 -0.04207725450396538 62.372596740722656 -41.23204803466797 58.999969482421875 1.7462986707687378 67.40364837646484 -1.9147422313690186 0.25388404726982117 3.8640429973602295 4.268303871154785
